<svg xmlns="http://www.w3.org/2000/svg" id="con-books" width="58" height="46" viewBox="0 0 58 46">
    <defs>
        <style>
            .cls-2{fill:#fff2cf}.cls-4{fill:#118995}.cls-6{fill:#d1dce4}.cls-8{fill:#fca1a1}.cls-9{opacity:.2}
        </style>
    </defs>
    <g id="Layer_1" data-name="Layer 1">
        <path id="Rectangle_1339" fill="#fdc00f" d="M0 0H51.252V11.69H0z" data-name="Rectangle 1339" transform="translate(0 34.31)"/>
        <path id="Rectangle_1340" d="M0 0H11.026V11.69H0z" class="cls-2" data-name="Rectangle 1340" transform="translate(5.475 34.31)"/>
        <path id="Rectangle_1341" d="M0 0H2.264V11.69H0z" class="cls-2" data-name="Rectangle 1341" transform="translate(17.498 34.31)"/>
        <path id="Rectangle_1342" fill="#16b6c6" d="M0 0H51.252V11.69H0z" data-name="Rectangle 1342" transform="translate(5.66 22.891)"/>
        <path id="Rectangle_1343" d="M0 0H11.026V11.69H0z" class="cls-4" data-name="Rectangle 1343" transform="translate(10.698 22.891)"/>
        <path id="Rectangle_1344" d="M0 0H2.264V11.69H0z" class="cls-4" data-name="Rectangle 1344" transform="translate(22.959 22.891)"/>
        <path id="Rectangle_1345" fill="#184f78" d="M0 0H51.252V11.69H0z" data-name="Rectangle 1345" transform="translate(3.624 11.483)"/>
        <path id="Rectangle_1346" d="M0 0H11.026V11.69H0z" class="cls-6" data-name="Rectangle 1346" transform="translate(8.916 11.483)"/>
        <path id="Rectangle_1347" d="M0 0H2.264V11.69H0z" class="cls-6" data-name="Rectangle 1347" transform="translate(21.002 11.483)"/>
        <path id="Rectangle_1348" fill="#eb6767" d="M0 0H51.252V11.69H0z" data-name="Rectangle 1348" transform="translate(6.748)"/>
        <path id="Rectangle_1349" d="M0 0H11.026V11.69H0z" class="cls-8" data-name="Rectangle 1349" transform="translate(11.744)"/>
        <path id="Rectangle_1350" d="M0 0H2.264V11.69H0z" class="cls-8" data-name="Rectangle 1350" transform="translate(24.012)"/>
        <path id="Path_78" d="M0 32.27h51.252v2.58z" class="cls-9" data-name="Path 78" transform="translate(0 2.208)"/>
        <path id="Path_79" d="M5.2 21.53h51.252v2.58z" class="cls-9" data-name="Path 79" transform="translate(.46 1.473)"/>
        <path id="Path_80" d="M3.33 10.79h51.252v2.58z" class="cls-9" data-name="Path 80" transform="translate(.294 .738)"/>
    </g>
</svg>
