<svg xmlns="http://www.w3.org/2000/svg" width="18" height="18" viewBox="0 0 18 18">
    <path id="prefix__icon-cart" fill="#d9d9d9" d="M16.5 10.593l1.477-7.313a.824.824 0 0 0-.727-1.03H4.975L4.689.675A.778.778 0 0 0 3.954 0H.75A.8.8 0 0 0 0 .844v.563a.8.8 0 0 0 .75.844h2.184l2.2 12.074a2.022 2.022 0 0 0-.879 1.707A1.869 1.869 0 0 0 6 18a1.869 1.869 0 0 0 1.75-1.969 2.089 2.089 0 0 0-.526-1.406h6.551a2.09 2.09 0 0 0-.526 1.406A1.869 1.869 0 0 0 15 18a1.869 1.869 0 0 0 1.75-1.969 2 2 0 0 0-.987-1.772l.172-.853a.824.824 0 0 0-.731-1.031H6.816l-.2-1.125h9.161a.775.775 0 0 0 .723-.657z"/>
</svg>
