<svg xmlns="http://www.w3.org/2000/svg" width="18" height="18" viewBox="0 0 18 18">
    <path id="prefix__icon-qa" fill="#d9d9d9" d="M18.563 9.563a9 9 0 1 1-9-9 9 9 0 0 1 9 9zM9.8 3.538a4.7 4.7 0 0 0-4.23 2.314.436.436 0 0 0 .1.59l1.262.958a.435.435 0 0 0 .6-.077c.648-.822 1.093-1.3 2.08-1.3.741 0 1.658.477 1.658 1.2 0 .543-.449.823-1.181 1.233-.854.479-1.983 1.074-1.983 2.564v.145a.436.436 0 0 0 .435.435h2.032a.436.436 0 0 0 .435-.435v-.048c0-1.033 3.019-1.076 3.019-3.871.006-2.111-2.177-3.708-4.227-3.708zm-.242 9a1.669 1.669 0 1 0 1.669 1.669 1.671 1.671 0 0 0-1.664-1.669z" transform="translate(-.563 -.563)"/>
</svg>
