<svg xmlns="http://www.w3.org/2000/svg" width="240" height="176" viewBox="0 0 240 176">
    <defs>
        <linearGradient id="linear-gradient" x1=".5" x2=".5" y1="1" gradientUnits="objectBoundingBox">
            <stop offset="0" stop-color="gray" stop-opacity=".251"/>
            <stop offset=".54" stop-color="gray" stop-opacity=".122"/>
            <stop offset="1" stop-color="gray" stop-opacity=".102"/>
        </linearGradient>
        <style>
            .cls-1,.cls-5{fill:#178fac}.cls-1,.cls-11,.cls-3{opacity:.1}.cls-2{fill:#d0d2d5}.cls-4{fill:#444053}.cls-6{fill:#fff}.cls-13{fill:#3f3d56}.cls-9{fill:#ee8e9e}.cls-10{fill:#454b69}.cls-15{fill:#a26565}.cls-16{fill:#efb7b9}
        </style>
    </defs>
    <g id="img-tutorial-375" transform="translate(-.001 -.005)">
        <path id="Path_20" d="M174.445 60.587c-15.386-.531-30.041-5.478-44.033-10.886S102.556 38.3 87.54 35.431c-9.66-1.844-20.706-2.1-28.488 3.051-7.491 4.96-9.91 13.531-11.21 21.47-.979 5.979-1.555 12.263 1.126 17.868 1.863 3.884 5.17 7.15 7.457 10.872 7.954 12.952 2.336 28.921-6.291 41.564-4.035 5.933-8.736 11.59-11.856 17.906s-4.564 13.548-1.835 19.988c2.708 6.385 9.156 11.18 16.142 14.552 14.19 6.85 30.912 8.812 47.217 9.922 36.1 2.448 72.384 1.391 108.573.334 13.394-.4 26.844-.795 40.021-2.856 7.315-1.144 14.868-2.96 20.177-7.347 6.743-5.569 8.415-15 3.9-21.988-7.578-11.711-28.535-14.62-33.832-27.189-2.916-6.918.079-14.624 4.316-21.041 9.09-13.766 24.327-25.841 25.13-41.575.552-10.806-6.773-21.629-18.1-26.741-11.873-5.36-28.333-4.685-37.092 4.186-9.016 9.135-24.865 12.649-38.45 12.18z" class="cls-1" data-name="Path 20" transform="translate(-35 -34.22)"/>
        <path id="Path_21" d="M510.893 685.142l-41.713-.535.122-1.07 2.017-17.648h36.633l2.7 17.648.205 1.337z" class="cls-2" data-name="Path 21" transform="translate(-369.678 -525.324)"/>
        <path id="Path_22" d="M510.853 749.727h-20.816l-20.857-.267.122-1.07h41.345z" class="cls-3" data-name="Path 22" transform="translate(-369.678 -590.176)"/>
        <path id="Rectangle_1246" d="M0 0H55.35V1.337H0z" class="cls-2" data-name="Rectangle 1246" transform="translate(92.551 158.481)"/>
        <path id="Path_23" d="M382.086 191.737a3.462 3.462 0 0 0-3.426-3.5H225.728a3.462 3.462 0 0 0-3.429 3.5v93.695h159.787z" class="cls-4" data-name="Path 23" transform="translate(-182.233 -156.057)"/>
        <path id="Path_24" d="M222.3 638.24v10.974a3.447 3.447 0 0 0 3.429 3.465H378.66a3.447 3.447 0 0 0 3.426-3.465V638.24z" class="cls-2" data-name="Path 24" transform="translate(-182.233 -510.515)"/>
        <path id="Rectangle_1247" d="M0 0H147.571V84.229H0z" class="cls-1" data-name="Rectangle 1247" transform="translate(46.574 38.054)"/>
        <path id="Path_25" d="M590.317 659.807a3.612 3.612 0 0 0 2.841-1.378 3.671 3.671 0 0 0 .28-.413l-1.981-.325 2.139.017a3.6 3.6 0 0 0 .068-2.862l-2.873 1.5 2.65-1.947a3.609 3.609 0 1 0-5.962 4.039 3.609 3.609 0 0 0 2.838 1.369z" class="cls-5" data-name="Path 25" transform="translate(-469.56 -521.779)"/>
        <path id="Path_26" d="M585.43 671.52l16.64 16.711-2.552-16.711z" class="cls-3" data-name="Path 26" transform="translate(-461.154 -529.75)"/>
        <rect id="Rectangle_1248" width="97.759" height="58.613" class="cls-6" data-name="Rectangle 1248" rx="2.6" transform="translate(50.516 53.178)"/>
        <path id="Rectangle_1249" d="M0 0H147.914V4.92H0z" class="cls-6" data-name="Rectangle 1249" transform="translate(46.47 38.42)"/>
        <rect id="Rectangle_1250" width="4.278" height="2.995" class="cls-5" data-name="Rectangle 1250" rx=".78" transform="translate(47.146 39.271)"/>
        <rect id="Rectangle_1251" width="44.922" height="2.995" fill="#178fac" data-name="Rectangle 1251" opacity="0.3" rx=".58" transform="translate(97.542 39.271)"/>
        <path id="Path_27" d="M692.5 222.725h-.109l-.041-.034a.909.909 0 0 0 .214-.582.886.886 0 1 0-.883.892.913.913 0 0 0 .582-.214l.041.034v.111l.685.685.214-.214zm-.821 0a.618.618 0 1 1 .616-.616.612.612 0 0 1-.616.616z" class="cls-4" data-name="Path 27" transform="translate(-551.514 -181.651)"/>
        <circle id="Ellipse_26" cx="1.497" cy="1.497" r="1.497" class="cls-5" data-name="Ellipse 26" transform="translate(190.712 39.271)"/>
        <rect id="Rectangle_1252" width="13.904" height="9.412" class="cls-6" data-name="Rectangle 1252" rx="2.43" transform="translate(154.767 48.562)"/>
        <rect id="Rectangle_1253" width="17.969" height="1.497" class="cls-6" data-name="Rectangle 1253" rx=".61" transform="translate(172.152 48.586)"/>
        <rect id="Rectangle_1254" width="17.969" height="1.497" class="cls-6" data-name="Rectangle 1254" rx=".61" transform="translate(172.152 51.761)"/>
        <rect id="Rectangle_1255" width="17.969" height="1.497" class="cls-6" data-name="Rectangle 1255" rx=".61" transform="translate(172.152 54.935)"/>
        <rect id="Rectangle_1256" width="13.904" height="9.412" class="cls-6" data-name="Rectangle 1256" rx="2.43" transform="translate(154.767 63.157)"/>
        <rect id="Rectangle_1257" width="17.969" height="1.497" class="cls-6" data-name="Rectangle 1257" rx=".61" transform="translate(172.152 63.189)"/>
        <rect id="Rectangle_1258" width="17.969" height="1.497" class="cls-6" data-name="Rectangle 1258" rx=".61" transform="translate(172.152 66.363)"/>
        <rect id="Rectangle_1259" width="17.969" height="1.497" class="cls-6" data-name="Rectangle 1259" rx=".66" transform="translate(172.152 69.538)"/>
        <rect id="Rectangle_1260" width="13.904" height="9.412" class="cls-6" data-name="Rectangle 1260" rx="2.43" transform="translate(154.767 77.752)"/>
        <rect id="Rectangle_1261" width="17.969" height="1.497" class="cls-6" data-name="Rectangle 1261" rx=".66" transform="translate(172.152 77.792)"/>
        <rect id="Rectangle_1262" width="17.969" height="1.497" class="cls-6" data-name="Rectangle 1262" rx=".66" transform="translate(172.152 80.966)"/>
        <rect id="Rectangle_1263" width="17.969" height="1.497" class="cls-6" data-name="Rectangle 1263" rx=".66" transform="translate(172.152 84.141)"/>
        <rect id="Rectangle_1264" width="13.904" height="9.412" class="cls-6" data-name="Rectangle 1264" rx="2.43" transform="translate(154.767 92.347)"/>
        <rect id="Rectangle_1265" width="17.969" height="1.497" class="cls-6" data-name="Rectangle 1265" rx=".66" transform="translate(172.152 92.394)"/>
        <rect id="Rectangle_1266" width="17.969" height="1.497" class="cls-6" data-name="Rectangle 1266" rx=".66" transform="translate(172.152 95.569)"/>
        <rect id="Rectangle_1267" width="17.969" height="1.497" class="cls-6" data-name="Rectangle 1267" rx=".66" transform="translate(172.152 98.743)"/>
        <rect id="Rectangle_1268" width="13.904" height="9.412" class="cls-6" data-name="Rectangle 1268" rx="2.43" transform="translate(154.767 106.943)"/>
        <rect id="Rectangle_1269" width="17.969" height="1.497" class="cls-6" data-name="Rectangle 1269" rx=".66" transform="translate(172.152 106.997)"/>
        <rect id="Rectangle_1270" width="17.969" height="1.497" class="cls-6" data-name="Rectangle 1270" rx=".66" transform="translate(172.152 110.171)"/>
        <rect id="Rectangle_1271" width="17.969" height="1.497" class="cls-6" data-name="Rectangle 1271" rx=".66" transform="translate(172.152 113.346)"/>
        <path id="Rectangle_1272" d="M0 0H21.997V1.14H0z" class="cls-1" data-name="Rectangle 1272" transform="translate(64.717 68.822)"/>
        <path id="Rectangle_1273" d="M0 0H2.118V6.028H0z" class="cls-1" data-name="Rectangle 1273" transform="translate(66.701 62.839)"/>
        <path id="Rectangle_1274" d="M0 0H2.118V6.028H0z" class="cls-1" data-name="Rectangle 1274" transform="translate(69.774 62.839)"/>
        <path id="Rectangle_1275" d="M0 0H2.118V6.028H0z" class="cls-1" data-name="Rectangle 1275" transform="translate(72.847 62.839)"/>
        <path id="Rectangle_1276" d="M0 0H2.118V6.028H0z" class="cls-1" data-name="Rectangle 1276" transform="translate(75.92 62.839)"/>
        <path id="Rectangle_1277" d="M0 0H2.118V6.028H0z" class="cls-1" data-name="Rectangle 1277" transform="translate(78.993 62.839)"/>
        <path id="Rectangle_1278" d="M0 0H2.118V6.028H0z" class="cls-1" data-name="Rectangle 1278" transform="translate(82.068 62.839)"/>
        <path id="Rectangle_1279" d="M0 0H2.118V0.652H0z" class="cls-1" data-name="Rectangle 1279" transform="translate(66.701 63.988)"/>
        <path id="Rectangle_1280" d="M0 0H2.118V0.652H0z" class="cls-1" data-name="Rectangle 1280" transform="translate(69.774 63.988)"/>
        <path id="Rectangle_1281" d="M0 0H2.118V0.652H0z" class="cls-1" data-name="Rectangle 1281" transform="translate(72.847 63.988)"/>
        <path id="Rectangle_1282" d="M0 0H2.118V0.652H0z" class="cls-1" data-name="Rectangle 1282" transform="translate(75.92 63.988)"/>
        <path id="Rectangle_1283" d="M0 0H2.118V0.652H0z" class="cls-1" data-name="Rectangle 1283" transform="translate(78.993 63.988)"/>
        <path id="Rectangle_1284" d="M0 0H2.118V0.652H0z" class="cls-1" data-name="Rectangle 1284" transform="translate(82.068 63.988)"/>
        <path id="Rectangle_1285" d="M0 0H2.118V0.652H0z" class="cls-1" data-name="Rectangle 1285" transform="translate(66.701 66.89)"/>
        <path id="Rectangle_1286" d="M0 0H2.118V0.652H0z" class="cls-1" data-name="Rectangle 1286" transform="translate(69.774 66.89)"/>
        <path id="Rectangle_1287" d="M0 0H2.118V0.652H0z" class="cls-1" data-name="Rectangle 1287" transform="translate(72.847 66.89)"/>
        <path id="Rectangle_1288" d="M0 0H2.118V0.652H0z" class="cls-1" data-name="Rectangle 1288" transform="translate(75.92 66.89)"/>
        <path id="Rectangle_1289" d="M0 0H2.118V0.652H0z" class="cls-1" data-name="Rectangle 1289" transform="translate(78.993 66.89)"/>
        <path id="Rectangle_1290" d="M0 0H2.118V0.652H0z" class="cls-1" data-name="Rectangle 1290" transform="translate(82.068 66.89)"/>
        <path id="Rectangle_1291" d="M0 0H21.997V1.14H0z" class="cls-1" data-name="Rectangle 1291" transform="translate(112.567 71.724)"/>
        <path id="Rectangle_1292" d="M0 0H2.118V6.028H0z" class="cls-1" data-name="Rectangle 1292" transform="translate(114.582 65.739)"/>
        <path id="Rectangle_1293" d="M0 0H2.118V6.028H0z" class="cls-1" data-name="Rectangle 1293" transform="translate(117.655 65.739)"/>
        <path id="Rectangle_1294" d="M0 0H2.118V6.028H0z" class="cls-1" data-name="Rectangle 1294" transform="translate(120.728 65.739)"/>
        <path id="Rectangle_1295" d="M0 0H2.118V6.028H0z" class="cls-1" data-name="Rectangle 1295" transform="translate(123.803 65.739)"/>
        <path id="Rectangle_1296" d="M0 0H2.118V6.028H0z" class="cls-1" data-name="Rectangle 1296" transform="translate(126.876 65.739)"/>
        <path id="Rectangle_1297" d="M0 0H2.118V6.028H0z" class="cls-1" data-name="Rectangle 1297" transform="translate(129.949 65.739)"/>
        <path id="Rectangle_1298" d="M0 0H2.118V0.652H0z" class="cls-1" data-name="Rectangle 1298" transform="translate(114.582 66.89)"/>
        <path id="Rectangle_1299" d="M0 0H2.118V0.652H0z" class="cls-1" data-name="Rectangle 1299" transform="translate(117.655 66.89)"/>
        <path id="Rectangle_1300" d="M0 0H2.118V0.652H0z" class="cls-1" data-name="Rectangle 1300" transform="translate(120.728 66.89)"/>
        <path id="Rectangle_1301" d="M0 0H2.118V0.652H0z" class="cls-1" data-name="Rectangle 1301" transform="translate(123.803 66.89)"/>
        <path id="Rectangle_1302" d="M0 0H2.118V0.652H0z" class="cls-1" data-name="Rectangle 1302" transform="translate(126.876 66.89)"/>
        <path id="Rectangle_1303" d="M0 0H2.118V0.652H0z" class="cls-1" data-name="Rectangle 1303" transform="translate(129.949 66.89)"/>
        <path id="Rectangle_1304" d="M0 0H2.118V0.652H0z" class="cls-1" data-name="Rectangle 1304" transform="translate(114.582 69.791)"/>
        <path id="Rectangle_1305" d="M0 0H2.118V0.652H0z" class="cls-1" data-name="Rectangle 1305" transform="translate(117.655 69.791)"/>
        <path id="Rectangle_1306" d="M0 0H2.118V0.652H0z" class="cls-1" data-name="Rectangle 1306" transform="translate(120.728 69.791)"/>
        <path id="Rectangle_1307" d="M0 0H2.118V0.652H0z" class="cls-1" data-name="Rectangle 1307" transform="translate(123.803 69.791)"/>
        <path id="Rectangle_1308" d="M0 0H2.118V0.652H0z" class="cls-1" data-name="Rectangle 1308" transform="translate(126.876 69.791)"/>
        <path id="Rectangle_1309" d="M0 0H2.118V0.652H0z" class="cls-1" data-name="Rectangle 1309" transform="translate(129.949 69.791)"/>
        <path id="Rectangle_1310" d="M0 0H21.997V1.14H0z" class="cls-1" data-name="Rectangle 1310" transform="translate(112.567 79.944)"/>
        <path id="Rectangle_1311" d="M0 0H2.118V6.028H0z" class="cls-1" data-name="Rectangle 1311" transform="translate(114.582 73.957)"/>
        <path id="Rectangle_1312" d="M0 0H2.118V6.028H0z" class="cls-1" data-name="Rectangle 1312" transform="translate(117.655 73.957)"/>
        <path id="Rectangle_1313" d="M0 0H2.118V6.028H0z" class="cls-1" data-name="Rectangle 1313" transform="translate(120.728 73.957)"/>
        <path id="Rectangle_1314" d="M0 0H2.118V6.028H0z" class="cls-1" data-name="Rectangle 1314" transform="translate(123.803 73.957)"/>
        <path id="Rectangle_1315" d="M0 0H2.118V6.028H0z" class="cls-1" data-name="Rectangle 1315" transform="translate(126.876 73.957)"/>
        <path id="Rectangle_1316" d="M0 0H2.118V6.028H0z" class="cls-1" data-name="Rectangle 1316" transform="translate(129.949 73.957)"/>
        <path id="Rectangle_1317" d="M0 0H2.118V0.652H0z" class="cls-1" data-name="Rectangle 1317" transform="translate(114.582 75.11)"/>
        <path id="Rectangle_1318" d="M0 0H2.118V0.652H0z" class="cls-1" data-name="Rectangle 1318" transform="translate(117.655 75.11)"/>
        <path id="Rectangle_1319" d="M0 0H2.118V0.652H0z" class="cls-1" data-name="Rectangle 1319" transform="translate(120.728 75.11)"/>
        <path id="Rectangle_1320" d="M0 0H2.118V0.652H0z" class="cls-1" data-name="Rectangle 1320" transform="translate(123.803 75.11)"/>
        <path id="Rectangle_1321" d="M0 0H2.118V0.652H0z" class="cls-1" data-name="Rectangle 1321" transform="translate(126.876 75.11)"/>
        <path id="Rectangle_1322" d="M0 0H2.118V0.652H0z" class="cls-1" data-name="Rectangle 1322" transform="translate(129.949 75.11)"/>
        <path id="Rectangle_1323" d="M0 0H2.118V0.652H0z" class="cls-1" data-name="Rectangle 1323" transform="translate(114.582 78.011)"/>
        <path id="Rectangle_1324" d="M0 0H2.118V0.652H0z" class="cls-1" data-name="Rectangle 1324" transform="translate(117.655 78.011)"/>
        <path id="Rectangle_1325" d="M0 0H2.118V0.652H0z" class="cls-1" data-name="Rectangle 1325" transform="translate(120.728 78.011)"/>
        <path id="Rectangle_1326" d="M0 0H2.118V0.652H0z" class="cls-1" data-name="Rectangle 1326" transform="translate(123.803 78.011)"/>
        <path id="Rectangle_1327" d="M0 0H2.118V0.652H0z" class="cls-1" data-name="Rectangle 1327" transform="translate(126.876 78.011)"/>
        <path id="Rectangle_1328" d="M0 0H2.118V0.652H0z" class="cls-1" data-name="Rectangle 1328" transform="translate(129.949 78.011)"/>
        <path id="Path_28" d="M398.44 385.19a6.084 6.084 0 0 1-.449-.661l3.168-.52-3.423.026a5.789 5.789 0 0 1-.111-4.573l4.588 2.379-4.238-3.115a5.776 5.776 0 1 1 9.534 6.46 5.611 5.611 0 0 1 .659 1.052l-4.111 2.139 4.383-1.47a5.776 5.776 0 0 1-.931 5.414 5.776 5.776 0 1 1-9.07 0 5.776 5.776 0 0 1 0-7.138z" class="cls-1" data-name="Path 28" transform="translate(-320.298 -303.639)"/>
        <path id="Path_29" d="M408.745 436.027a5.753 5.753 0 0 1-1.237 3.564 5.776 5.776 0 1 1-9.07 0c-.776-.978 10.307-4.212 10.307-3.564z" class="cls-1" data-name="Path 29" transform="translate(-320.296 -350.985)"/>
        <path id="Path_30" fill="#3f3d56" d="M420.6 497.835a.544.544 0 0 1 .028.047h-1.959c.011-.015.017-.032.028-.047a1.9 1.9 0 0 1-.252-.965 1.98 1.98 0 0 1 .118-.68c.109.017.244.036.4.053a6.866 6.866 0 0 0 1.367 0q.2-.019.4-.051a.018.018 0 0 0 0 .011 1.926 1.926 0 0 1 .116.67 1.9 1.9 0 0 1-.246.962z" data-name="Path 30" opacity="0.2" transform="translate(-337.005 -398.419)"/>
        <path id="Path_31" d="M338.842 425.612h-10.91c-.023-.062-.045-.128-.064-.193a5.743 5.743 0 0 1 .126-3.773 5.776 5.776 0 0 1-2.107-6.822 5.533 5.533 0 0 1-.622-.5l2.871-1.431-3.264 1.035a5.775 5.775 0 0 1-1.455-4.336l5.093.92-4.967-1.726a5.776 5.776 0 1 1 11.015 3.358 5.851 5.851 0 0 1 .948.824l-3.3 3.254 3.754-2.7a5.776 5.776 0 0 1 .71 5.455 5.776 5.776 0 0 1 2.172 6.635z" class="cls-1" data-name="Path 31" transform="translate(-262.173 -326.046)"/>
        <path id="Path_32" d="M354.322 465.654h-10.91c-.023-.062-.045-.128-.064-.193a5.743 5.743 0 0 1 .126-3.773c-1.027-.71 8.606-7.074 8.8-6.454a5.75 5.75 0 0 1-.126 3.776 5.776 5.776 0 0 1 2.174 6.644z" class="cls-1" data-name="Path 32" transform="translate(-277.676 -366.148)"/>
        <path id="Path_33" d="M560.523 435.475a5.754 5.754 0 0 1-2.89 2.43 5.86 5.86 0 0 1 .023 1.241l-4.623-.278 4.516.98a5.775 5.775 0 0 1-.689 1.746 5.683 5.683 0 0 1-1.54 1.69h-6.293v.165h-6.417c.013-.056.026-.109.041-.165a5.776 5.776 0 0 1 3.519-3.917 5.776 5.776 0 0 1 3.664-6.126 5.851 5.851 0 0 1-.047-.8l2.984 1.179-2.952-1.735a5.776 5.776 0 0 1 2.265-3.975l2.719 4.4-2.039-4.847a5.776 5.776 0 0 1 7.759 8.009z" class="cls-1" data-name="Path 33" transform="translate(-434.861 -343.753)"/>
        <path id="Path_34" d="M556.861 486.887a5.683 5.683 0 0 1-1.54 1.69h-6.293v.165h-6.418c.013-.056.026-.109.041-.165a5.775 5.775 0 0 1 3.519-3.917c-.054-.428 1.189-.364 2.847-.086 3.249.546 8.064 1.945 7.844 2.313z" class="cls-1" data-name="Path 34" transform="translate(-434.845 -389.103)"/>
        <path id="Path_35" d="M476.352 423s.792 4.278-.975 5.675 1.5 9.769 6.884 8.792 7.581-8 7.581-8-5.395-1.117-3.395-6.792z" class="cls-9" data-name="Path 35" transform="translate(-381.507 -340.53)"/>
        <path id="Path_36" d="M476.352 423s.792 4.278-.975 5.675 1.5 9.769 6.884 8.792 7.581-8 7.581-8-5.395-1.117-3.395-6.792z" class="cls-3" data-name="Path 36" transform="translate(-381.507 -340.53)"/>
        <circle id="Ellipse_27" cx="8.931" cy="8.931" r="8.931" class="cls-9" data-name="Ellipse 27" transform="translate(90.694 67.895)"/>
        <path id="Path_37" d="M464.24 453.025v6.075h-29.49v-5.8a3.739 3.739 0 0 1 2.283-3.444l.845-.359c2.139-.911 4.738-2.043 5.587-2.513a1.4 1.4 0 0 0 .261-.169c.464-.464.372.139.372.139s-.013.116-.021.314c-.051 1.367.145 6.738 6.441 6.291 6.141-.428 6.417-4.582 6.355-5.8a3.315 3.315 0 0 0-.028-.338 7.936 7.936 0 0 1 1.243.406 26.062 26.062 0 0 1 3.686 1.6c.158.111.351.227.56.344a3.688 3.688 0 0 1 .663.473 3.746 3.746 0 0 1 1.243 2.787z" class="cls-5" data-name="Path 37" transform="translate(-349.93 -359.416)"/>
        <path id="Path_38" d="M490.1 447.825c-.52 2.409-2.152 6.92-8.035 7.038-6.268.124-6.631-6.109-6.591-7.879a1.264 1.264 0 0 0 .263-.169c.466-.464.372.139.372.139s-.789 7.117 6.417 6.606 6.321-6.139 6.321-6.139a8.786 8.786 0 0 1 1.253.404z" class="cls-3" data-name="Path 38" transform="translate(-381.958 -359.391)"/>
        <path id="Path_39" d="M452.359 345.609a1.53 1.53 0 0 1 1.611.588 2.919 2.919 0 0 1 .415 1.532c.387.081.605-.357.642-.689a17.729 17.729 0 0 1 .607-4.03 4.811 4.811 0 0 1 2.965-3.065 3.439 3.439 0 0 1 1.619-.154c.323.053.627.167.948.214 1.112.184 2.321-.342 3.363.024a2.681 2.681 0 0 1 1.375 1.3 2.8 2.8 0 0 0 .535.776 3.7 3.7 0 0 0 1.771.625 2.284 2.284 0 0 1 1.6.83 2.169 2.169 0 0 1-.017 1.433 3.513 3.513 0 0 0 .361 2.218c.118.214.357.473.642.4a.562.562 0 0 0 .3-.246c.729-1.023.71-2.353 1.626-3.275.306-.308.7-.548 1-.856a1.942 1.942 0 0 0 .518-1.763 5.788 5.788 0 0 0-1.185-1.9 7.487 7.487 0 0 1-1.268-2.633.477.477 0 0 1 0-.344.918.918 0 0 1 .325-.265 1.228 1.228 0 0 0 .415-1.568 2.614 2.614 0 0 0-1.47-1.17 9.583 9.583 0 0 0-2-.428 1.09 1.09 0 0 1-1.114-.55c-.062-.16-.062-.334-.124-.494a1.134 1.134 0 0 0-.856-.6 2.5 2.5 0 0 0-1.144.081c-.428.12-.913.3-1.284.09-.195-.109-.3-.308-.511-.4-.428-.18-.868.184-1.174.483a2.859 2.859 0 0 1-1.059.712 1.577 1.577 0 0 1-1.313-.088 4.15 4.15 0 0 1-.674-.723 2.537 2.537 0 0 0-1.594-.642 5.613 5.613 0 0 0-1.8.2 10.863 10.863 0 0 0-3.16 1.326 3.4 3.4 0 0 0-1.213 1.127 2.567 2.567 0 0 0-.272 1.162 4.192 4.192 0 0 0 1.465 3.48 2.064 2.064 0 0 0-1.048 1.566 8.571 8.571 0 0 0-.406 2.933 6.442 6.442 0 0 1 .111 1.525 3.285 3.285 0 0 0-.1.729.7.7 0 0 0 .572.529z" class="cls-10" data-name="Path 39" transform="translate(-363.304 -268.27)"/>
        <g id="Group_23" class="cls-11" data-name="Group 23" transform="translate(88.465 65.952)">
            <path id="Path_40" d="M540.193 378a2.089 2.089 0 0 1-.385.569c-.3.312-.693.554-1 .856-.916.916-.9 2.255-1.626 3.277a.55.55 0 0 1-.3.244c-.278.073-.518-.18-.642-.4a3.679 3.679 0 0 1-.319-.856l-.043.214a3.512 3.512 0 0 0 .362 2.218c.118.214.357.473.642.4a.562.562 0 0 0 .3-.246c.729-1.022.71-2.353 1.626-3.275.306-.308.7-.548 1-.856a1.943 1.943 0 0 0 .518-1.763 2.314 2.314 0 0 0-.133-.383z" data-name="Path 40" transform="translate(-517.858 -371.172)"/>
            <path id="Path_41" d="M545.6 347.535a.9.9 0 0 0-.325.265.473.473 0 0 0 0 .342 7.214 7.214 0 0 0 .323.975 1.228 1.228 0 0 0 .415-1.568 1.5 1.5 0 0 0-.15-.25 1.234 1.234 0 0 1-.263.236z" data-name="Path 41" transform="translate(-525.256 -347.039)"/>
            <path id="Path_42" d="M453.3 348.559a3.966 3.966 0 0 1-1.4-2.479 3.344 3.344 0 0 0-.064.582 4.454 4.454 0 0 0 .7 2.646 1.5 1.5 0 0 1 .764-.749z" data-name="Path 42" transform="translate(-451.829 -346.08)"/>
            <path id="Path_43" d="M469.994 369.706a2.169 2.169 0 0 0 .017-1.433 2.276 2.276 0 0 0-1.6-.83 3.728 3.728 0 0 1-1.771-.625 2.8 2.8 0 0 1-.535-.777 2.649 2.649 0 0 0-1.375-1.3c-1.042-.366-2.25.158-3.363-.024-.321-.053-.625-.165-.948-.214a3.423 3.423 0 0 0-1.619.154 4.82 4.82 0 0 0-2.965 3.065 17.688 17.688 0 0 0-.608 4.03c-.036.329-.255.77-.642.689a2.943 2.943 0 0 0-.415-1.534 1.53 1.53 0 0 0-1.611-.586.782.782 0 0 1-.451-.289 2.478 2.478 0 0 1 0 .59 3.288 3.288 0 0 0-.1.729.7.7 0 0 0 .558.55 1.53 1.53 0 0 1 1.611.588 2.919 2.919 0 0 1 .415 1.532c.387.081.605-.357.642-.689a17.726 17.726 0 0 1 .608-4.03 4.811 4.811 0 0 1 2.965-3.065 3.44 3.44 0 0 1 1.619-.154c.323.053.627.167.948.214 1.112.184 2.321-.342 3.363.023a2.682 2.682 0 0 1 1.376 1.3 2.8 2.8 0 0 0 .535.777 3.7 3.7 0 0 0 1.771.625 2.338 2.338 0 0 1 1.568.779.185.185 0 0 1 .007-.095z" data-name="Path 43" transform="translate(-451.969 -360.538)"/>
            <path id="Path_44" d="M451.95 381.451a4.063 4.063 0 0 0-.071-1.191 5.31 5.31 0 0 0-.041 1.249 2.277 2.277 0 0 0 .039.319c.023-.128.056-.25.073-.377z" data-name="Path 44" transform="translate(-451.819 -372.948)"/>
        </g>
        <path id="Path_45" d="M403.49 530.626v-3.861a.109.109 0 0 1 .109-.109h.439a.109.109 0 0 1 .109.109v1.607l1.78-1.649a.291.291 0 0 1 .477.214v3.5a.291.291 0 0 1-.477.214l-1.78-1.639v1.6a.109.109 0 0 1-.109.109h-.438a.109.109 0 0 1-.11-.095z" class="cls-4" data-name="Path 45" transform="translate(-325.232 -422.452)"/>
        <path id="Path_46" d="M593.837 526.79v3.861a.109.109 0 0 1-.111.109h-.426a.109.109 0 0 1-.109-.109v-1.606l-1.78 1.647a.293.293 0 0 1-.479-.214v-3.51a.293.293 0 0 1 .479-.214l1.78 1.639v-1.6a.109.109 0 0 1 .109-.109h.428a.109.109 0 0 1 .109.106z" class="cls-4" data-name="Path 46" transform="translate(-472.864 -422.478)"/>
        <path id="Path_47" d="M495.838 531.112h-.871a.428.428 0 0 1-.428-.428v-3.2a.428.428 0 0 1 .428-.428h.871a.428.428 0 0 1 .428.428v3.2a.428.428 0 0 1-.428.428zm2.759-.428v-3.2a.428.428 0 0 0-.428-.428h-.879a.428.428 0 0 0-.428.428v3.2a.428.428 0 0 0 .428.428h.871a.428.428 0 0 0 .436-.428z" class="cls-4" data-name="Path 47" transform="translate(-396.948 -422.772)"/>
        <path id="Rectangle_1329" fill="#444053" d="M0 0H51.34V0.571H0z" data-name="Rectangle 1329" opacity="0.6" transform="translate(73.983 99.185)"/>
        <circle id="Ellipse_28" cx="1.354" cy="1.354" r="1.354" class="cls-4" data-name="Ellipse 28" transform="translate(88.515 98.114)"/>
        <path id="Rectangle_1330" d="M0 0H15.853V0.571H0z" class="cls-4" data-name="Rectangle 1330" transform="translate(74.089 99.185)"/>
        <ellipse id="Ellipse_29" cx="12.722" cy="2.447" class="cls-5" data-name="Ellipse 29" rx="12.722" ry="2.447" transform="translate(190.293 157.938)"/>
        <ellipse id="Ellipse_30" cx="1.48" cy="1.938" class="cls-13" data-name="Ellipse 30" rx="1.48" ry="1.938" transform="translate(201.323 157.407)"/>
        <ellipse id="Ellipse_31" cx="1.48" cy="1.938" class="cls-13" data-name="Ellipse 31" rx="1.48" ry="1.938" transform="translate(201.323 155.037)"/>
        <ellipse id="Ellipse_32" cx="1.48" cy="1.938" class="cls-13" data-name="Ellipse 32" rx="1.48" ry="1.938" transform="translate(201.323 152.669)"/>
        <ellipse id="Ellipse_33" cx="1.48" cy="1.938" class="cls-13" data-name="Ellipse 33" rx="1.48" ry="1.938" transform="translate(201.323 150.299)"/>
        <ellipse id="Ellipse_34" cx="1.48" cy="1.938" class="cls-13" data-name="Ellipse 34" rx="1.48" ry="1.938" transform="translate(201.323 147.929)"/>
        <ellipse id="Ellipse_35" cx="1.48" cy="1.938" class="cls-13" data-name="Ellipse 35" rx="1.48" ry="1.938" transform="translate(201.323 145.559)"/>
        <ellipse id="Ellipse_36" cx="1.48" cy="1.938" class="cls-13" data-name="Ellipse 36" rx="1.48" ry="1.938" transform="translate(201.323 143.188)"/>
        <path id="Path_48" d="M970.438 603.431a7.342 7.342 0 0 0 .552-.813l-3.893-.642 4.21.032a7.117 7.117 0 0 0 .135-5.622l-5.643 2.931L971 595.49a7.1 7.1 0 1 0-11.718 7.94 7.242 7.242 0 0 0-.809 1.283l5.053 2.625-5.386-1.808a7.1 7.1 0 0 0 1.142 6.661 7.093 7.093 0 1 0 11.154 0 7.1 7.1 0 0 0 0-8.771z" class="cls-5" data-name="Path 48" transform="translate(-762.092 -474.173)"/>
        <path id="Path_49" d="M957.78 665.746a7.059 7.059 0 0 0 1.517 4.385 7.093 7.093 0 1 0 11.153 0c.95-1.204-12.67-5.18-12.67-4.385z" class="cls-3" data-name="Path 49" transform="translate(-762.102 -532.137)"/>
        <ellipse id="Ellipse_37" cx="21.178" cy="4.492" class="cls-1" data-name="Ellipse 37" rx="21.178" ry="4.492" transform="translate(40.506 167.021)"/>
        <path id="Path_50" fill="url(#linear-gradient)" d="M294.824 531.709a5.577 5.577 0 0 0-1.333-.18 4.124 4.124 0 0 1-2.451-1.189 4.493 4.493 0 0 1-.98-1.5c.141.051.282.1.428.163a4.236 4.236 0 0 1 .415-3.13q1-2.567 1.893-5.162c1.5-4.383 2.781-8.942 2.753-13.6 0-1.686-.31-3.279-.37-4.963-.045-1.249.148-2.5.139-3.748 0-.175 0-.349-.013-.524a3.322 3.322 0 0 0 1.127-2.708 6.513 6.513 0 0 0-.113-.787 12.771 12.771 0 0 0-.3-1.339c-.141-.464-.334-.909-.5-1.363-.319-.879-.535-1.795-.806-2.689a.925.925 0 0 1 .291.079.626.626 0 0 1-.137-.28 6.933 6.933 0 0 1-.257-1.748l.182-.081a4.55 4.55 0 0 0-.088-1.731c.1-.918.263-1.842.362-2.755.036-.342.021-.772-.293-.856-.064-.49-.09-.986-.115-1.48q-.135-2.586-.267-5.17c-.09-1.731-.18-3.459-.214-5.192a15.157 15.157 0 0 0-.3-3.29 3.98 3.98 0 0 0-.152-1.5 3.069 3.069 0 0 0-2.888-2.188 5.745 5.745 0 0 0-1.367-1.382c.25-.56.55-1.138.8-1.592a5.186 5.186 0 0 0 3.474-4.984 5.439 5.439 0 0 0-.588-2.479 2.692 2.692 0 0 0 .094-.289 2.372 2.372 0 0 0-.1-1.388 4.05 4.05 0 0 0-.214-.5c-.056-.107-.116-.214-.178-.317l-.109-.165a3.079 3.079 0 0 0-.214-.291 7.092 7.092 0 0 0-.488-.586 4.825 4.825 0 0 0-.7-.625 3.094 3.094 0 0 0-1.155-.533 3.524 3.524 0 0 0-.734-.066c-.148 0-.3 0-.445.013-.3.017-.6.038-.894.036a1.981 1.981 0 0 1-.3-.015 10.832 10.832 0 0 1-1.549-.323l-.257-.053c-.088-.017-.173-.032-.261-.043a4.891 4.891 0 0 0-.708-.043h-.237a6.567 6.567 0 0 0-.708.073l-.235.036a6.761 6.761 0 0 0-1.722.511c-.071.032-.143.068-.214.107l-.043.023c-.058.03-.115.062-.171.1l-.032.019-.182.116-.015.011a7.662 7.662 0 0 0-2.956 5.455 22.515 22.515 0 0 0 .712 7.213l.449 2.139c.019.1.041.19.06.287a4.707 4.707 0 0 0-1.41 1.955 8.346 8.346 0 0 0-.4 3.386c0 .235.013.471.036.706-.054.445-.1.892-.13 1.341-.135 2.075.118 4.161.051 6.24a45.675 45.675 0 0 0-.175 4.8 21.669 21.669 0 0 0 .856 4.144l.539 1.942a.515.515 0 0 0 .135.267.407.407 0 0 0 .3.062 18.207 18.207 0 0 0-.877 2.456 7.6 7.6 0 0 0-.317 1.579 9.646 9.646 0 0 0 .383 2.9q.513 2.139 1.022 4.3l.717 3.014a32.124 32.124 0 0 1 1.031 6.013 13.054 13.054 0 0 1-.214 3.057 26.636 26.636 0 0 0-.265 9.162 44.917 44.917 0 0 0 1.731 7.575c.173-.092.349-.178.528-.257l-.075.139q-.37.642-.684 1.316a7.49 7.49 0 0 0-.366.9 10.137 10.137 0 0 0-.355 2.668 1.305 1.305 0 0 0 .045.516 1.071 1.071 0 0 0 .77.578 7.034 7.034 0 0 0 2.845.045.34.34 0 0 0 .019.062 1.067 1.067 0 0 0 .77.578 11.117 11.117 0 0 0 4.079-.107 28.525 28.525 0 0 0 4.013-.349 1.912 1.912 0 0 0 .556-.214 1.821 1.821 0 0 0 .7-.973 1.247 1.247 0 0 0 .081-.319 1.084 1.084 0 0 0-.765-1.036zM290.3 511.9a5.392 5.392 0 0 1-.428 1.45 27.681 27.681 0 0 0-2.195 6.882 31.906 31.906 0 0 0-.486 4.76 8.575 8.575 0 0 1-.466 3.466l.178-.028c-.056.1-.109.214-.16.3l-.026.047a4.638 4.638 0 0 1-.584-1.639c0-.019-.1-.034-.244-.043a44.266 44.266 0 0 1-.625-10.244 4.744 4.744 0 0 1 .171-1.23c.109-.344.293-.659.428-.993a7.29 7.29 0 0 0 .428-1.741 24.74 24.74 0 0 0 .27-4.6 19.1 19.1 0 0 1 .571-4.342c.137-.687.263-1.376.332-2.064l.013-.139a20.722 20.722 0 0 1 2.627 6.82 9.755 9.755 0 0 1 .196 3.338zm-9.156-30.915l.068.06a4.705 4.705 0 0 1 .569.6.789.789 0 0 1 .18.329c.064.312-.195.578-.406.807a3.618 3.618 0 0 0-.259.312q-.068-1.052-.145-2.1z" data-name="Path 50" transform="translate(-226.097 -360.718)"/>
        <path id="Path_51" d="M278.148 542.53l-.235 1.816c-.079.616-.158 1.23-.2 1.848-.143 2.058.122 4.124.053 6.186a42.643 42.643 0 0 0-.186 4.758 20.172 20.172 0 0 0 .9 4.107l.565 1.925a.51.51 0 0 0 .141.265.5.5 0 0 0 .362.058l2.507-.227c-.16-.736-.338-1.5-.428-2.253-.068-.59-.109-1.185-.152-1.78-.133-1.852-.284-3.7-.428-5.562l-.267-3.252a24.528 24.528 0 0 0-.586-4.2 8.362 8.362 0 0 0-2.046-3.689z" class="cls-5" data-name="Path 51" transform="translate(-226.038 -435.095)"/>
        <path id="Path_52" d="M278.148 542.53l-.235 1.816c-.079.616-.158 1.23-.2 1.848-.143 2.058.122 4.124.053 6.186a42.643 42.643 0 0 0-.186 4.758 20.172 20.172 0 0 0 .9 4.107l.565 1.925a.51.51 0 0 0 .141.265.5.5 0 0 0 .362.058l2.507-.227c-.16-.736-.338-1.5-.428-2.253-.068-.59-.109-1.185-.152-1.78-.133-1.852-.284-3.7-.428-5.562l-.267-3.252a24.528 24.528 0 0 0-.586-4.2 8.362 8.362 0 0 0-2.046-3.689z" class="cls-3" data-name="Path 52" transform="translate(-226.038 -435.095)"/>
        <path id="Path_53" d="M298.429 823.273a7.666 7.666 0 0 0-.385.894 9.628 9.628 0 0 0-.372 2.644 1.283 1.283 0 0 0 .047.511 1.114 1.114 0 0 0 .811.571 12.264 12.264 0 0 0 4.278-.1 32.227 32.227 0 0 0 4.214-.344 2.157 2.157 0 0 0 .584-.2 1.821 1.821 0 0 0 .738-.963 1.26 1.26 0 0 0 .083-.317 1.094 1.094 0 0 0-.809-1.031 6.1 6.1 0 0 0-1.4-.178 4.406 4.406 0 0 1-3.9-3.681 9.692 9.692 0 0 0-2.567.092 2.148 2.148 0 0 0-.614.807q-.379.627-.708 1.295z" class="cls-15" data-name="Path 53" transform="translate(-241.894 -654.59)"/>
        <path id="Path_54" d="M298.429 823.273a7.666 7.666 0 0 0-.385.894 9.628 9.628 0 0 0-.372 2.644 1.283 1.283 0 0 0 .047.511 1.114 1.114 0 0 0 .811.571 12.264 12.264 0 0 0 4.278-.1 32.227 32.227 0 0 0 4.214-.344 2.157 2.157 0 0 0 .584-.2 1.821 1.821 0 0 0 .738-.963 1.26 1.26 0 0 0 .083-.317 1.094 1.094 0 0 0-.809-1.031 6.1 6.1 0 0 0-1.4-.178 4.406 4.406 0 0 1-3.9-3.681 9.692 9.692 0 0 0-2.567.092 2.148 2.148 0 0 0-.614.807q-.379.627-.708 1.295z" class="cls-3" data-name="Path 54" transform="translate(-241.894 -654.59)"/>
        <path id="Path_55" d="M316.277 826.411a7.292 7.292 0 0 0-.385.892 9.521 9.521 0 0 0-.372 2.644 1.246 1.246 0 0 0 .047.511 1.114 1.114 0 0 0 .809.573 12.313 12.313 0 0 0 4.278-.107 32.184 32.184 0 0 0 4.214-.344 2.058 2.058 0 0 0 .584-.214 1.811 1.811 0 0 0 .738-.963 1.259 1.259 0 0 0 .083-.317 1.1 1.1 0 0 0-.809-1.031 6.216 6.216 0 0 0-1.4-.178 4.409 4.409 0 0 1-3.9-3.679 9.678 9.678 0 0 0-2.567.09 2.13 2.13 0 0 0-.616.806c-.244.436-.481.872-.704 1.317z" class="cls-15" data-name="Path 55" transform="translate(-255.952 -657.048)"/>
        <path id="Path_56" d="M298.854 648.576c.03 4.623-1.313 9.141-2.89 13.477q-.937 2.58-1.987 5.115c-.415 1-.883 2.114-.439 3.1a7.509 7.509 0 0 0-3.938-.55 8.06 8.06 0 0 0 .488-3.423 30.011 30.011 0 0 1 .5-4.717 26.312 26.312 0 0 1 2.308-6.822 5.2 5.2 0 0 0 .447-1.437 9.182 9.182 0 0 0-.19-3.318 19.781 19.781 0 0 0-2.759-6.76l-.013.137a19.947 19.947 0 0 1-.347 2.047 17.9 17.9 0 0 0-.6 4.3 23.28 23.28 0 0 1-.282 4.563 6.934 6.934 0 0 1-.46 1.724c-.148.332-.34.642-.456.986a4.492 4.492 0 0 0-.18 1.219 41.349 41.349 0 0 0 .71 10.426 6.621 6.621 0 0 0-3.448.785 42.474 42.474 0 0 1-1.818-7.508 24.946 24.946 0 0 1 .278-9.083 12.07 12.07 0 0 0 .225-3.027 30.219 30.219 0 0 0-1.082-5.962l-.753-2.995q-.535-2.139-1.07-4.259a9.055 9.055 0 0 1-.4-2.879 7.146 7.146 0 0 1 .334-1.566 17.477 17.477 0 0 1 2.368-4.843 93.93 93.93 0 0 0 12.407-.471.832.832 0 0 1 .582.1.823.823 0 0 1 .235.531l1.547 8.77a22.037 22.037 0 0 1 .439 3.7c0 1.241-.193 2.477-.145 3.716.063 1.674.38 3.253.389 4.924z" class="cls-10" data-name="Path 56" transform="translate(-228.533 -501.937)"/>
        <path id="Path_57" d="M307.766 679a19.935 19.935 0 0 1-.347 2.047c-.9-1.551-1.863-3.063-2.689-4.653-.214-.409-.415-.824-.618-1.239l-.61-1.241c-.113-.233-.227-.466-.329-.7a5.085 5.085 0 0 1-.383-1.07c.3-.056 1.04.753 1.262.965a17.238 17.238 0 0 1 1.284 1.421 15.576 15.576 0 0 1 1.339 1.754 8.53 8.53 0 0 1 1.091 2.716z" class="cls-3" data-name="Path 57" transform="translate(-245.921 -537.193)"/>
        <path id="Path_58" d="M308.754 498.4s-2.289 3.647-1.865 4.411-7.209-.678-7.209-.678 4.156-3.647 3.731-5.175 5.343 1.442 5.343 1.442z" class="cls-16" data-name="Path 58" transform="translate(-243.479 -398.708)"/>
        <circle id="Ellipse_38" cx="5.175" cy="5.175" r="5.175" class="cls-16" data-name="Ellipse 38" transform="translate(58.05 90.501)"/>
        <path id="Path_59" d="M292.367 513.665a5.254 5.254 0 0 0-2.176-1.75 7.786 7.786 0 0 0-1.547-.381l-2.064-.364a2.629 2.629 0 0 0-1.517.034 2.486 2.486 0 0 0-.642.473 8.552 8.552 0 0 1-2.312 1.78c-.246.1-.5.182-.749.287a4.321 4.321 0 0 0-2.186 2.353 7.851 7.851 0 0 0-.428 3.354 5.9 5.9 0 0 0 .118 1.181 7.6 7.6 0 0 0 .391 1.082 19.81 19.81 0 0 1 .714 2.3q.8 3.07 1.335 6.2a2.324 2.324 0 0 0 .259.856 3.071 3.071 0 0 0 .714.687 4.458 4.458 0 0 1 .6.592.775.775 0 0 1 .195.317c.066.308-.214.573-.428.8a3.864 3.864 0 0 0-.967 1.684.678.678 0 0 0-.154.464.813.813 0 0 1 .049.368.83.83 0 0 1-.195.3 1.14 1.14 0 0 0-.214.915 14.519 14.519 0 0 0 5.065 1.185c.428.021.856.021 1.284.073.3.039.6.1.907.137a9.787 9.787 0 0 0 1.326.034 17.926 17.926 0 0 0 6.79-1.018 7.879 7.879 0 0 0-.5-3.26c-.428-1.711-.535-3.463-.856-5.19-.214-1.179-.535-2.34-.717-3.527a8.622 8.622 0 0 1 .1-3.572c.289-1.022.376-2.066.676-3.087a5.289 5.289 0 0 0 .171-3.136 3.225 3.225 0 0 0-3.042-2.171z" class="cls-5" data-name="Path 59" transform="translate(-226.996 -410.342)"/>
        <path id="Path_60" d="M296.909 455.631a3.107 3.107 0 0 0-.834-2.62 4.439 4.439 0 0 0-2.462-1.726 20.981 20.981 0 0 0-2.49-.032c-.734-.058-1.44-.323-2.169-.428a6.871 6.871 0 0 0-1.985.075 7.539 7.539 0 0 0-1.808.5 7.168 7.168 0 0 0-3.793 5.776 21.131 21.131 0 0 0 .747 7.149l.473 2.126a42.226 42.226 0 0 1 1.114 6.7 14.215 14.215 0 0 1-1.044 6.653 14.309 14.309 0 0 0 6.574-7.442c.334-.875.582-1.784.954-2.644.319-.74.727-1.442 1.01-2.2a7.135 7.135 0 0 0 .451-2.668c-.017-.684-.13-1.365-.111-2.049a2.831 2.831 0 0 1 .667-1.893 5.784 5.784 0 0 1 1.557-.926 6.483 6.483 0 0 0 2.18-1.818 2 2 0 0 0 .445-1.147 14.528 14.528 0 0 1 .524-1.386z" class="cls-15" data-name="Path 60" transform="translate(-228.998 -362.798)"/>
        <path id="Path_61" d="M351.509 644.683a13.722 13.722 0 0 0 .073 1.6c.088.394.291.749.411 1.134a5.39 5.39 0 0 1 .182 1.363c.017.385-.013.856-.355 1.035-.15.079-.329.079-.486.148s-.289.255-.2.4.244.122.385.15.293.173.214.291a.243.243 0 0 1-.124.079 1.516 1.516 0 0 0-.4.193.411.411 0 0 0-.165.392.242.242 0 0 0 .344.158 1.07 1.07 0 0 0-.1.428 1.956 1.956 0 0 0 1.675-.37 6.316 6.316 0 0 0 .642-.411 3.209 3.209 0 0 0 1.249-2.732 6.367 6.367 0 0 0-.122-.781 11.745 11.745 0 0 0-.314-1.328c-.148-.46-.349-.9-.522-1.35-.368-.961-.605-1.966-.939-2.939a.445.445 0 0 0-.16-.255.45.45 0 0 0-.237-.045 3.884 3.884 0 0 0-1.115.1 1.184 1.184 0 0 0-.68.428c-.1.214.06.394.156.571a4.788 4.788 0 0 1 .588 1.741z" class="cls-16" data-name="Path 61" transform="translate(-283.68 -513.313)"/>
        <path id="Path_62" d="M334.939 533.64a1.567 1.567 0 0 1 .274.381 9.578 9.578 0 0 1 .779 4.46c.038 1.711.133 3.423.227 5.145l.28 5.134c.028.49.053.98.124 1.465.329.084.342.511.306.856-.237 2.092-.826 4.246-.214 6.259a.63.63 0 0 0 .143.278 1.67 1.67 0 0 0-.956-.013c-.306.064-.6.177-.909.248a1.93 1.93 0 0 0-1.1.428 21.235 21.235 0 0 1-.717-2.764 10.638 10.638 0 0 0-.533-2.528c-.139-.319-.327-.614-.5-.92a20.114 20.114 0 0 1-1.767-5.192 7.578 7.578 0 0 1-.137-2.58 8.873 8.873 0 0 0 .107-1.187 9.123 9.123 0 0 0-.165-1.249 8.375 8.375 0 0 1 .25-3.617 9.766 9.766 0 0 1 1.284-3.151 4.308 4.308 0 0 1 3.224-1.453z" class="cls-3" data-name="Path 62" transform="translate(-267.432 -428.115)"/>
        <path id="Path_63" d="M336.145 532.84a1.583 1.583 0 0 1 .274.383 9.573 9.573 0 0 1 .779 4.46c.039 1.711.133 3.423.227 5.134l.28 5.134c.028.49.053.98.124 1.465.329.083.342.511.3.856-.235 2.092-.824 4.244-.214 6.259a.629.629 0 0 0 .143.278 1.67 1.67 0 0 0-.956-.013c-.306.064-.6.178-.909.246a1.946 1.946 0 0 0-1.1.428 21.014 21.014 0 0 1-.71-2.777 10.618 10.618 0 0 0-.533-2.526 10.311 10.311 0 0 0-.5-.92 20.052 20.052 0 0 1-1.767-5.194 7.576 7.576 0 0 1-.137-2.58 5.563 5.563 0 0 0-.058-2.437 8.364 8.364 0 0 1 .25-3.615 9.765 9.765 0 0 1 1.284-3.151 4.287 4.287 0 0 1 3.223-1.43z" class="cls-5" data-name="Path 63" transform="translate(-268.385 -427.484)"/>
        <g id="Group_24" class="cls-11" data-name="Group 24" transform="translate(53.652 87.987)">
            <path id="Path_64" d="M307.056 453.011a4.438 4.438 0 0 0-2.462-1.726 20.981 20.981 0 0 0-2.49-.032c-.734-.058-1.44-.323-2.169-.428a6.871 6.871 0 0 0-1.985.075 7.54 7.54 0 0 0-1.808.5 5.364 5.364 0 0 0-.892.507 7.605 7.605 0 0 1 1.6-.428 6.844 6.844 0 0 1 1.983-.075c.732.094 1.435.357 2.171.415a21.477 21.477 0 0 1 2.49.032 4.415 4.415 0 0 1 2.46 1.728 3.1 3.1 0 0 1 .836 2.62 14.636 14.636 0 0 0-.524 1.405 1.985 1.985 0 0 1-.447 1.147 6.5 6.5 0 0 1-1.57 1.461c.165-.077.334-.154.494-.237a6.483 6.483 0 0 0 2.18-1.818 1.994 1.994 0 0 0 .445-1.147 14.781 14.781 0 0 1 .524-1.405 3.084 3.084 0 0 0-.836-2.594z" data-name="Path 64" transform="translate(-293.639 -450.785)"/>
            <path id="Path_65" d="M297.265 497.28a2.14 2.14 0 0 1 .289-.25 4.432 4.432 0 0 0-1.393.856 2.86 2.86 0 0 0-.667 1.893c-.026.685.1 1.365.111 2.047a7.146 7.146 0 0 1-.451 2.67c-.282.755-.691 1.455-1.01 2.2-.37.856-.618 1.767-.952 2.642a14.332 14.332 0 0 1-5.436 6.764c-.013.028-.024.058-.036.086a14.309 14.309 0 0 0 6.574-7.442c.334-.875.582-1.784.954-2.644.319-.74.727-1.442 1.01-2.2a7.136 7.136 0 0 0 .451-2.668c-.017-.684-.13-1.365-.111-2.049a2.858 2.858 0 0 1 .667-1.905z" data-name="Path 65" transform="translate(-287.72 -487.137)"/>
        </g>
    </g>
</svg>
