<svg xmlns="http://www.w3.org/2000/svg" width="100" height="15" viewBox="0 0 100 15">
    <defs>
        <style>
            .prefix__cls-1{fill:#178fac}
        </style>
    </defs>
    <g id="prefix__logo-hiskio" transform="translate(-89.566 100.579)">
        <path id="prefix__Path_2" d="M366.9-100.51c-2.621.652-4.032 1.775-4.746 3.809a16.541 16.541 0 0 0-.31 5.721c.512 3.52 2.947 5.4 6.995 5.4s6.483-1.882 6.995-5.4a16.54 16.54 0 0 0-.31-5.721 5.692 5.692 0 0 0-3.66-3.52 18.91 18.91 0 0 0-4.964-.289zm3.862 2.7a3.243 3.243 0 0 1 1.722 1.654 9.315 9.315 0 0 1 .2 3.323c-.047 2.61-.047 2.655-.481 3.262a3.888 3.888 0 0 1-1.086.971c-.574.319-.838.364-2.3.364-1.551 0-1.675-.03-2.388-.455a3.117 3.117 0 0 1-1.117-1.123c-.326-.622-.357-.835-.357-3.262 0-2.4.031-2.655.357-3.278a3.4 3.4 0 0 1 2.28-1.669 7.5 7.5 0 0 1 3.168.214z" data-name="Path 2" transform="translate(-186.381)"/>
        <path id="prefix__Path_3" d="M158.109-99.979c-.744.14-1.1 1.442-.589 2.171a1.732 1.732 0 0 0 1.846.357 1.1 1.1 0 0 0 .869-1.241 1.092 1.092 0 0 0-.791-1.225 2.029 2.029 0 0 0-1.335-.062z" class="prefix__cls-1" data-name="Path 3" transform="translate(-46.441 -.359)"/>
        <path id="prefix__Path_4" d="M198.457-99.807a4.7 4.7 0 0 0-2.373 1.38 4.674 4.674 0 0 0-1.039 2.442 4.03 4.03 0 0 0 1.225 2.579c.713.7 1.318.986 4 1.972 1.644.607 2.218 1.107 2.218 1.972 0 1.7-2.7 2.366-5.273 1.289-1.877-.774-2.482-.652-2.482.47 0 .91.248 1.259 1.163 1.669 2.854 1.274 6.855.88 8.623-.849a3.851 3.851 0 0 0 .853-4.369c-.589-1.107-1.458-1.669-4.094-2.624-1.954-.713-2.606-1.077-2.916-1.684-.931-1.76 1.97-2.912 4.544-1.79.884.379 1.489.425 1.846.137.388-.319.217-1.608-.264-1.972-1.037-.789-4.434-1.138-6.031-.622z" data-name="Path 4" transform="translate(-72.055 -.366)"/>
        <path id="prefix__Path_5" d="M258.316-99.921l-.357.243v14.048l.388.167a3.1 3.1 0 0 0 2.094-.015l.388-.2.078-3.277.078-3.292 2.714 3.323c2.993 3.671 3.071 3.732 4.622 3.611.9-.076 1.3-.364 1.163-.85-.031-.137-1.318-1.76-2.854-3.6-1.52-1.836-2.776-3.4-2.776-3.474a34.359 34.359 0 0 1 2.45-2.625c2.357-2.412 3.288-3.459 3.288-3.7a.753.753 0 0 0-.248-.349 4.559 4.559 0 0 0-2.761-.061 29.547 29.547 0 0 0-2.962 2.958c-1.411 1.517-2.637 2.776-2.714 2.776a10.516 10.516 0 0 1-.155-2.716c0-3.095.016-3.065-1.287-3.156a1.632 1.632 0 0 0-1.149.189z" data-name="Path 5" transform="translate(-115.363 -.298)"/>
        <path id="prefix__Path_6" d="M324.623-99.831l-.4.3v6.887c0 5.446.047 6.9.2 7.024a2.407 2.407 0 0 0 2.016.121l.574-.228v-13.8l-.4-.3a1.68 1.68 0 0 0-.993-.319 1.679 1.679 0 0 0-.997.315z" data-name="Path 6" transform="translate(-160.938 -.298)"/>
        <path id="prefix__Path_7" d="M89.864-99.5c-.2.121-.233 1.092-.279 6.915-.047 7.9-.124 7.491 1.349 7.491 1.4 0 1.411-.045 1.411-3.169a15.311 15.311 0 0 1 .155-2.912c.155-.273.357-.288 2.776-.288 2.233 0 2.652.03 2.823.258.171.182.233.94.264 2.987.047 3.154.047 3.124 1.365 3.124 1.38 0 1.3.47 1.3-7.279 0-5.975-.031-6.824-.248-7.036a2.85 2.85 0 0 0-2.2-.045 11.823 11.823 0 0 0-.217 2.623c-.031 1.789-.109 2.5-.264 2.684-.171.227-.589.258-2.823.258-2.419 0-2.621-.015-2.776-.288a13.1 13.1 0 0 1-.155-2.654c0-2.775-.016-2.821-1.365-2.821a3.284 3.284 0 0 0-1.116.152z" class="prefix__cls-1" data-name="Path 7" transform="translate(0 -.642)"/>
        <path id="prefix__Path_8" d="M157.55-87.262c-.217.2-.248.915-.248 5.413 0 5.94-.109 5.521 1.5 5.521 1.5 0 1.442.264 1.442-5.6 0-5.894.078-5.583-1.52-5.583-.647.001-1.004.078-1.174.249z" class="prefix__cls-1" data-name="Path 8" transform="translate(-46.454 -9.391)"/>
    </g>
</svg>
